STARTFONT 2.1
FONT -Adobe-Courier-Medium-O-Normal--17-120-100-100-M-100-ISO8859-2
SIZE 12 100 100
FONTBOUNDINGBOX 15 18 -2 -4
COMMENT $XConsortium: courO12.bdf,v 1.10 95/01/26 17:53:01 gildea Exp $
COMMENT 
COMMENT +
COMMENT  Copyright 1984-1989, 1994 Adobe Systems Incorporated.
COMMENT  Copyright 1988, 1994 Digital Equipment Corporation.
COMMENT
COMMENT  Adobe is a trademark of Adobe Systems Incorporated which may be
COMMENT  registered in certain jurisdictions.
COMMENT  Permission to use these trademarks is hereby granted only in
COMMENT  association with the images described in this file.
COMMENT
COMMENT  Permission to use, copy, modify, distribute and sell this software
COMMENT  and its documentation for any purpose and without fee is hereby
COMMENT  granted, provided that the above copyright notices appear in all
COMMENT  copies and that both those copyright notices and this permission
COMMENT  notice appear in supporting documentation, and that the names of
COMMENT  Adobe Systems and Digital Equipment Corporation not be used in
COMMENT  advertising or publicity pertaining to distribution of the software
COMMENT  without specific, written prior permission.  Adobe Systems and
COMMENT  Digital Equipment Corporation make no representations about the
COMMENT  suitability of this software for any purpose.  It is provided "as
COMMENT  is" without express or implied warranty.
COMMENT -
COMMENT  
COMMENT  Translation to ISO8859-2 by Cub Soft;  Petr.Kolar@vslib.cz
COMMENT  
STARTPROPERTIES 28
FOUNDRY "Adobe"
FAMILY_NAME "Courier"
WEIGHT_NAME "Medium"
SLANT "O"
SETWIDTH_NAME "Normal"
ADD_STYLE_NAME ""
PIXEL_SIZE 17
POINT_SIZE 120
RESOLUTION_X 100
RESOLUTION_Y 100
SPACING "M"
AVERAGE_WIDTH 100
CHARSET_REGISTRY "ISO8859"
CHARSET_ENCODING "2"
CAP_HEIGHT 10
X_HEIGHT 7
FONT_ASCENT 12
FONT_DESCENT 3
FACE_NAME "Courier Oblique"

STARTCHAR space
ENCODING 32
SWIDTH 600 0
DWIDTH 10 0
BBX 1 1 0 0
BITMAP
00
ENDCHAR
STARTCHAR exclam
ENCODING 33
SWIDTH 600 0
DWIDTH 10 0
BBX 5 11 4 0
BITMAP
08
08
10
10
20
20
40
40
00
80
80
ENDCHAR
STARTCHAR quotedbl
ENCODING 34
SWIDTH 600 0
DWIDTH 10 0
BBX 5 5 4 6
BITMAP
48
48
48
90
90
ENDCHAR
STARTCHAR numbersign
ENCODING 35
SWIDTH 600 0
DWIDTH 10 0
BBX 8 12 2 -1
BITMAP
05
05
0a
0a
7f
14
28
fe
28
28
50
50
ENDCHAR
STARTCHAR dollar
ENCODING 36
SWIDTH 600 0
DWIDTH 10 0
BBX 9 13 2 -1
BITMAP
0200
0200
0f80
1100
2000
2000
1c00
0200
0200
4400
f800
2000
2000
ENDCHAR
STARTCHAR percent
ENCODING 37
SWIDTH 600 0
DWIDTH 10 0
BBX 8 11 2 0
BITMAP
1c
22
44
38
03
3c
c0
1c
22
44
38
ENDCHAR
STARTCHAR ampersand
ENCODING 38
SWIDTH 600 0
DWIDTH 10 0
BBX 8 9 2 0
BITMAP
0e
11
10
10
39
4a
8c
88
74
ENDCHAR
STARTCHAR apostrophe
ENCODING 39
SWIDTH 600 0
DWIDTH 10 0
BBX 3 4 5 7
BITMAP
60
60
40
80
ENDCHAR
STARTCHAR parenleft
ENCODING 40
SWIDTH 600 0
DWIDTH 10 0
BBX 6 13 5 -2
BITMAP
04
08
10
20
40
40
80
80
80
80
80
80
80
ENDCHAR
STARTCHAR parenright
ENCODING 41
SWIDTH 600 0
DWIDTH 10 0
BBX 6 13 1 -2
BITMAP
04
04
04
04
04
04
04
08
08
10
20
40
80
ENDCHAR
STARTCHAR asterisk
ENCODING 42
SWIDTH 600 0
DWIDTH 10 0
BBX 8 6 3 4
BITMAP
08
08
ff
38
28
44
ENDCHAR
STARTCHAR plus
ENCODING 43
SWIDTH 600 0
DWIDTH 10 0
BBX 8 9 2 0
BITMAP
04
04
08
08
ff
10
10
20
20
ENDCHAR
STARTCHAR comma
ENCODING 44
SWIDTH 600 0
DWIDTH 10 0
BBX 3 4 2 -2
BITMAP
60
60
40
80
ENDCHAR
STARTCHAR minus
ENCODING 45
SWIDTH 600 0
DWIDTH 10 0
BBX 7 1 2 4
BITMAP
fe
ENDCHAR
STARTCHAR period
ENCODING 46
SWIDTH 600 0
DWIDTH 10 0
BBX 2 2 3 0
BITMAP
c0
c0
ENDCHAR
STARTCHAR slash
ENCODING 47
SWIDTH 600 0
DWIDTH 10 0
BBX 11 13 1 -2
BITMAP
0020
0040
0080
0100
0100
0200
0400
0800
1000
1000
2000
4000
8000
ENDCHAR
STARTCHAR zero
ENCODING 48
SWIDTH 600 0
DWIDTH 10 0
BBX 8 11 2 0
BITMAP
0e
11
21
41
41
81
82
82
84
88
70
ENDCHAR
STARTCHAR one
ENCODING 49
SWIDTH 600 0
DWIDTH 10 0
BBX 7 11 1 0
BITMAP
06
1a
02
04
04
08
08
08
10
10
fe
ENDCHAR
STARTCHAR two
ENCODING 50
SWIDTH 600 0
DWIDTH 10 0
BBX 9 11 2 0
BITMAP
0f00
1080
2080
0100
0200
0400
0800
1000
2000
4200
fe00
ENDCHAR
STARTCHAR three
ENCODING 51
SWIDTH 600 0
DWIDTH 10 0
BBX 9 11 2 0
BITMAP
0f00
1080
2080
0100
0e00
0200
0100
0100
8200
8600
7800
ENDCHAR
STARTCHAR four
ENCODING 52
SWIDTH 600 0
DWIDTH 10 0
BBX 8 11 2 0
BITMAP
03
05
0a
12
22
44
84
fe
08
08
3c
ENDCHAR
STARTCHAR five
ENCODING 53
SWIDTH 600 0
DWIDTH 10 0
BBX 9 11 2 0
BITMAP
0f80
1000
1000
3c00
0200
0200
0200
0200
8400
8c00
7000
ENDCHAR
STARTCHAR six
ENCODING 54
SWIDTH 600 0
DWIDTH 10 0
BBX 8 11 3 0
BITMAP
07
18
20
40
78
84
84
84
84
88
70
ENDCHAR
STARTCHAR seven
ENCODING 55
SWIDTH 600 0
DWIDTH 10 0
BBX 7 11 4 0
BITMAP
7e
82
04
04
08
10
20
20
40
80
80
ENDCHAR
STARTCHAR eight
ENCODING 56
SWIDTH 600 0
DWIDTH 10 0
BBX 8 11 2 0
BITMAP
1e
21
21
22
1c
24
42
82
82
84
78
ENDCHAR
STARTCHAR nine
ENCODING 57
SWIDTH 600 0
DWIDTH 10 0
BBX 8 11 2 0
BITMAP
0e
11
21
21
21
21
1e
02
04
18
e0
ENDCHAR
STARTCHAR colon
ENCODING 58
SWIDTH 600 0
DWIDTH 10 0
BBX 4 7 3 0
BITMAP
30
30
00
00
00
c0
c0
ENDCHAR
STARTCHAR semicolon
ENCODING 59
SWIDTH 600 0
DWIDTH 10 0
BBX 5 9 2 -2
BITMAP
18
18
00
00
00
60
60
40
80
ENDCHAR
STARTCHAR less
ENCODING 60
SWIDTH 600 0
DWIDTH 10 0
BBX 10 9 1 0
BITMAP
00c0
0300
0c00
3000
c000
2000
1800
0400
0200
ENDCHAR
STARTCHAR equal
ENCODING 61
SWIDTH 600 0
DWIDTH 10 0
BBX 9 4 2 3
BITMAP
7f80
0000
0000
ff00
ENDCHAR
STARTCHAR greater
ENCODING 62
SWIDTH 600 0
DWIDTH 10 0
BBX 10 9 0 0
BITMAP
1000
0800
0600
0100
00c0
0300
0c00
3000
c000
ENDCHAR
STARTCHAR question
ENCODING 63
SWIDTH 600 0
DWIDTH 10 0
BBX 7 10 4 0
BITMAP
3c
42
42
04
18
20
40
00
80
80
ENDCHAR
STARTCHAR at
ENCODING 64
SWIDTH 600 0
DWIDTH 10 0
BBX 9 12 2 -1
BITMAP
0700
0880
1080
2080
2700
4900
5200
5200
8c00
8000
8800
7000
ENDCHAR
STARTCHAR A
ENCODING 65
SWIDTH 600 0
DWIDTH 10 0
BBX 9 10 1 0
BITMAP
0f00
0300
0500
0500
0900
1100
1f00
2100
4100
e380
ENDCHAR
STARTCHAR B
ENCODING 66
SWIDTH 600 0
DWIDTH 10 0
BBX 10 10 1 0
BITMAP
1f80
0840
0840
1080
1f00
2100
2080
4080
4100
fe00
ENDCHAR
STARTCHAR C
ENCODING 67
SWIDTH 600 0
DWIDTH 10 0
BBX 10 10 2 0
BITMAP
0740
1880
2080
4000
4000
8000
8000
8100
4600
3800
ENDCHAR
STARTCHAR D
ENCODING 68
SWIDTH 600 0
DWIDTH 10 0
BBX 10 10 1 0
BITMAP
1f00
0880
0840
1040
1040
2080
2080
4100
4600
f800
ENDCHAR
STARTCHAR E
ENCODING 69
SWIDTH 600 0
DWIDTH 10 0
BBX 10 10 1 0
BITMAP
1fc0
0840
0840
1200
1c00
2400
2000
4100
4200
fe00
ENDCHAR
STARTCHAR F
ENCODING 70
SWIDTH 600 0
DWIDTH 10 0
BBX 10 10 1 0
BITMAP
1fc0
0840
0840
1200
1c00
2400
2000
4000
4000
f000
ENDCHAR
STARTCHAR G
ENCODING 71
SWIDTH 600 0
DWIDTH 10 0
BBX 11 10 2 0
BITMAP
0720
18c0
2040
4000
4000
8780
8100
8100
4200
3c00
ENDCHAR
STARTCHAR H
ENCODING 72
SWIDTH 600 0
DWIDTH 10 0
BBX 11 10 1 0
BITMAP
1ce0
0840
0840
1080
1f80
2100
2100
4200
4200
e700
ENDCHAR
STARTCHAR I
ENCODING 73
SWIDTH 600 0
DWIDTH 10 0
BBX 10 10 1 0
BITMAP
1fc0
0200
0200
0400
0400
0800
0800
1000
1000
fe00
ENDCHAR
STARTCHAR J
ENCODING 74
SWIDTH 600 0
DWIDTH 10 0
BBX 11 10 1 0
BITMAP
07e0
0080
0080
0100
0100
0200
0200
8400
8400
7800
ENDCHAR
STARTCHAR K
ENCODING 75
SWIDTH 600 0
DWIDTH 10 0
BBX 11 10 1 0
BITMAP
1ee0
0880
0900
1200
1400
3c00
2200
4200
4200
f300
ENDCHAR
STARTCHAR L
ENCODING 76
SWIDTH 600 0
DWIDTH 10 0
BBX 9 10 1 0
BITMAP
1f00
0400
0400
0800
0800
1000
1080
2080
2100
ff00
ENDCHAR
STARTCHAR M
ENCODING 77
SWIDTH 600 0
DWIDTH 10 0
BBX 13 10 0 0
BITMAP
0c38
0430
0e50
0aa0
1320
1240
2240
2080
4080
e1c0
ENDCHAR
STARTCHAR N
ENCODING 78
SWIDTH 600 0
DWIDTH 10 0
BBX 12 10 0 0
BITMAP
18f0
0820
1420
1440
1440
2280
2280
4280
4300
f100
ENDCHAR
STARTCHAR O
ENCODING 79
SWIDTH 600 0
DWIDTH 10 0
BBX 9 10 2 0
BITMAP
0f00
1080
2080
4080
4080
8100
8100
8200
8400
7800
ENDCHAR
STARTCHAR P
ENCODING 80
SWIDTH 600 0
DWIDTH 10 0
BBX 10 10 1 0
BITMAP
1f80
0840
0840
1040
1180
3e00
2000
4000
4000
f800
ENDCHAR
STARTCHAR Q
ENCODING 81
SWIDTH 600 0
DWIDTH 10 0
BBX 9 12 2 -2
BITMAP
0f00
1080
2080
4080
4080
8100
8100
8200
8c00
7000
4400
b800
ENDCHAR
STARTCHAR R
ENCODING 82
SWIDTH 600 0
DWIDTH 10 0
BBX 9 10 1 0
BITMAP
1f00
0880
0880
1080
1100
3e00
2200
4100
4100
f180
ENDCHAR
STARTCHAR S
ENCODING 83
SWIDTH 600 0
DWIDTH 10 0
BBX 10 10 1 0
BITMAP
0f40
1080
2080
2000
1800
0600
0100
4100
4200
bc00
ENDCHAR
STARTCHAR T
ENCODING 84
SWIDTH 600 0
DWIDTH 10 0
BBX 10 10 2 0
BITMAP
3fc0
2440
4880
4880
0800
1000
1000
2000
2000
f800
ENDCHAR
STARTCHAR U
ENCODING 85
SWIDTH 600 0
DWIDTH 10 0
BBX 11 10 2 0
BITMAP
79e0
2080
2080
4100
4100
8200
8200
8400
8800
7000
ENDCHAR
STARTCHAR V
ENCODING 86
SWIDTH 600 0
DWIDTH 10 0
BBX 9 10 3 0
BITMAP
e380
4100
4200
4400
4800
4800
5000
6000
4000
4000
ENDCHAR
STARTCHAR W
ENCODING 87
SWIDTH 600 0
DWIDTH 10 0
BBX 11 10 2 0
BITMAP
79e0
2040
2480
4480
4900
5a00
6a00
4c00
8800
8800
ENDCHAR
STARTCHAR X
ENCODING 88
SWIDTH 600 0
DWIDTH 10 0
BBX 12 10 0 0
BITMAP
1c70
0820
0440
0580
0200
0400
1a00
2200
4100
e380
ENDCHAR
STARTCHAR Y
ENCODING 89
SWIDTH 600 0
DWIDTH 10 0
BBX 10 10 2 0
BITMAP
71c0
2080
2100
1200
1400
0800
1000
1000
2000
f800
ENDCHAR
STARTCHAR Z
ENCODING 90
SWIDTH 600 0
DWIDTH 10 0
BBX 10 10 1 0
BITMAP
1fc0
1080
1100
0200
0400
0800
1000
2200
4200
fe00
ENDCHAR
STARTCHAR bracketleft
ENCODING 91
SWIDTH 600 0
DWIDTH 10 0
BBX 8 13 3 -2
BITMAP
0f
08
08
10
10
10
20
20
20
40
40
80
e0
ENDCHAR
STARTCHAR backslash
ENCODING 92
SWIDTH 600 0
DWIDTH 10 0
BBX 2 13 5 -2
BITMAP
80
80
80
80
80
80
40
40
40
40
40
40
40
ENDCHAR
STARTCHAR bracketright
ENCODING 93
SWIDTH 600 0
DWIDTH 10 0
BBX 8 13 1 -2
BITMAP
07
01
02
02
04
04
04
08
08
08
10
10
f0
ENDCHAR
STARTCHAR asciicircum
ENCODING 94
SWIDTH 600 0
DWIDTH 10 0
BBX 7 4 4 7
BITMAP
10
28
44
82
ENDCHAR
STARTCHAR underscore
ENCODING 95
SWIDTH 600 0
DWIDTH 10 0
BBX 10 1 -2 -3
BITMAP
ffc0
ENDCHAR
STARTCHAR grave
ENCODING 96
SWIDTH 600 0
DWIDTH 10 0
BBX 3 3 5 8
BITMAP
80
40
20
ENDCHAR
STARTCHAR a
ENCODING 97
SWIDTH 600 0
DWIDTH 10 0
BBX 7 7 2 0
BITMAP
1c
22
02
7c
84
88
74
ENDCHAR
STARTCHAR b
ENCODING 98
SWIDTH 600 0
DWIDTH 10 0
BBX 9 10 1 0
BITMAP
1800
0800
0800
1f00
1080
1080
2080
2100
2300
dc00
ENDCHAR
STARTCHAR c
ENCODING 99
SWIDTH 600 0
DWIDTH 10 0
BBX 8 7 2 0
BITMAP
1d
62
42
80
80
84
78
ENDCHAR
STARTCHAR d
ENCODING 100
SWIDTH 600 0
DWIDTH 10 0
BBX 9 10 2 0
BITMAP
0180
0080
0100
1d00
6200
4200
8200
8400
8c00
7600
ENDCHAR
STARTCHAR e
ENCODING 101
SWIDTH 600 0
DWIDTH 10 0
BBX 7 7 2 0
BITMAP
1c
62
42
fe
80
84
78
ENDCHAR
STARTCHAR f
ENCODING 102
SWIDTH 600 0
DWIDTH 10 0
BBX 10 10 2 0
BITMAP
0380
0440
0400
3f00
0800
1000
1000
2000
2000
fc00
ENDCHAR
STARTCHAR g
ENCODING 103
SWIDTH 600 0
DWIDTH 10 0
BBX 9 10 2 -3
BITMAP
1d80
6300
4200
8200
8400
8c00
7400
0800
0800
f000
ENDCHAR
STARTCHAR h
ENCODING 104
SWIDTH 600 0
DWIDTH 10 0
BBX 9 10 1 0
BITMAP
1800
0800
0800
1700
1880
1080
2100
2100
4200
e700
ENDCHAR
STARTCHAR i
ENCODING 105
SWIDTH 600 0
DWIDTH 10 0
BBX 7 11 1 0
BITMAP
02
02
00
00
1c
04
08
08
10
10
fe
ENDCHAR
STARTCHAR j
ENCODING 106
SWIDTH 600 0
DWIDTH 10 0
BBX 8 14 1 -3
BITMAP
01
01
00
00
1f
01
02
02
04
04
04
08
08
f0
ENDCHAR
STARTCHAR k
ENCODING 107
SWIDTH 600 0
DWIDTH 10 0
BBX 9 10 1 0
BITMAP
1800
0800
1000
1380
1200
2400
3800
4400
4400
cf00
ENDCHAR
STARTCHAR l
ENCODING 108
SWIDTH 600 0
DWIDTH 10 0
BBX 7 10 1 0
BITMAP
0e
02
04
04
04
08
08
10
10
fe
ENDCHAR
STARTCHAR m
ENCODING 109
SWIDTH 600 0
DWIDTH 10 0
BBX 10 7 0 0
BITMAP
36c0
1b40
1240
2480
2480
4900
ed80
ENDCHAR
STARTCHAR n
ENCODING 110
SWIDTH 600 0
DWIDTH 10 0
BBX 9 7 1 0
BITMAP
3700
1880
1080
2100
2100
4200
e700
ENDCHAR
STARTCHAR o
ENCODING 111
SWIDTH 600 0
DWIDTH 10 0
BBX 7 7 2 0
BITMAP
1c
62
42
82
84
8c
70
ENDCHAR
STARTCHAR p
ENCODING 112
SWIDTH 600 0
DWIDTH 10 0
BBX 10 10 0 -3
BITMAP
1b80
0c40
0840
1040
1080
3180
2e00
4000
4000
f000
ENDCHAR
STARTCHAR q
ENCODING 113
SWIDTH 600 0
DWIDTH 10 0
BBX 9 10 2 -3
BITMAP
1d80
6300
4200
8200
8400
8c00
7400
0800
0800
3c00
ENDCHAR
STARTCHAR r
ENCODING 114
SWIDTH 600 0
DWIDTH 10 0
BBX 10 7 1 0
BITMAP
3b80
0c40
1000
1000
1000
2000
fc00
ENDCHAR
STARTCHAR s
ENCODING 115
SWIDTH 600 0
DWIDTH 10 0
BBX 8 7 2 0
BITMAP
1f
21
40
3c
02
84
f8
ENDCHAR
STARTCHAR t
ENCODING 116
SWIDTH 600 0
DWIDTH 10 0
BBX 7 9 3 0
BITMAP
10
10
fe
20
40
40
80
84
78
ENDCHAR
STARTCHAR u
ENCODING 117
SWIDTH 600 0
DWIDTH 10 0
BBX 8 7 2 0
BITMAP
73
21
42
42
84
8c
76
ENDCHAR
STARTCHAR v
ENCODING 118
SWIDTH 600 0
DWIDTH 10 0
BBX 9 7 2 0
BITMAP
e380
4100
4200
4400
2800
3000
2000
ENDCHAR
STARTCHAR w
ENCODING 119
SWIDTH 600 0
DWIDTH 10 0
BBX 9 7 2 0
BITMAP
e380
4100
5200
5400
6c00
4800
4800
ENDCHAR
STARTCHAR x
ENCODING 120
SWIDTH 600 0
DWIDTH 10 0
BBX 9 7 1 0
BITMAP
3b80
1100
1600
0800
3400
4400
ee00
ENDCHAR
STARTCHAR y
ENCODING 121
SWIDTH 600 0
DWIDTH 10 0
BBX 11 10 0 -3
BITMAP
38e0
1040
1080
0900
0a00
0400
0800
1000
2000
f000
ENDCHAR
STARTCHAR z
ENCODING 122
SWIDTH 600 0
DWIDTH 10 0
BBX 8 7 2 0
BITMAP
3f
22
04
18
20
44
fc
ENDCHAR
STARTCHAR braceleft
ENCODING 123
SWIDTH 600 0
DWIDTH 10 0
BBX 7 13 3 -2
BITMAP
06
08
08
08
10
30
40
20
20
40
40
80
60
ENDCHAR
STARTCHAR bar
ENCODING 124
SWIDTH 600 0
DWIDTH 10 0
BBX 6 12 3 -2
BITMAP
04
04
08
08
10
10
20
20
40
40
80
80
ENDCHAR
STARTCHAR braceright
ENCODING 125
SWIDTH 600 0
DWIDTH 10 0
BBX 7 13 2 -2
BITMAP
0c
02
04
04
08
08
04
18
10
20
20
20
c0
ENDCHAR
STARTCHAR asciitilde
ENCODING 126
SWIDTH 600 0
DWIDTH 10 0
BBX 7 3 2 3
BITMAP
60
92
0c
ENDCHAR
STARTCHAR nobreakspace
ENCODING 160
SWIDTH 600 0
DWIDTH 10 0
BBX 1 1 0 0
BITMAP
00
ENDCHAR
STARTCHAR Aogonek
ENCODING 161
SWIDTH 600 0
DWIDTH 10 0
BBX 9 13 1 -3
BITMAP
0f00
0300
0500
0500
0900
1100
1f00
2100
4100
e380
0800
1000
0c00
ENDCHAR
STARTCHAR breve
ENCODING 162
SWIDTH 600 0
DWIDTH 10 0
BBX 5 3 5 8
BITMAP
88
88
70
ENDCHAR
STARTCHAR Lstroke
ENCODING 163
SWIDTH 600 0
DWIDTH 10 0
BBX 9 10 1 0
BITMAP
1f00
0400
0400
0900
0e00
7000
9080
2080
2100
ff00
ENDCHAR
STARTCHAR currency
ENCODING 164
SWIDTH 600 0
DWIDTH 10 0
BBX 10 7 1 1
BITMAP
1040
1f80
1100
2100
2200
7e00
8200
ENDCHAR
STARTCHAR Lcaron
ENCODING 165
SWIDTH 780 0
DWIDTH 13 0
BBX 12 11 1 0
BITMAP
0030
1f30
0420
0440
0800
0800
1000
1080
2080
2100
ff00
ENDCHAR
STARTCHAR Sacute
ENCODING 166
SWIDTH 600 0
DWIDTH 10 0
BBX 10 14 1 0
BITMAP
0080
0100
0200
0000
0f40
1080
2080
2000
1800
0600
0100
4100
4200
bc00
ENDCHAR
STARTCHAR section
ENCODING 167
SWIDTH 600 0
DWIDTH 10 0
BBX 10 12 1 -1
BITMAP
07c0
0840
0840
3800
4c00
4300
3080
0c80
0700
8400
8400
f800
ENDCHAR
STARTCHAR diaeresis
ENCODING 168
SWIDTH 600 0
DWIDTH 10 0
BBX 4 2 6 8
BITMAP
90
90
ENDCHAR
STARTCHAR Scaron
ENCODING 169
SWIDTH 600 0
DWIDTH 10 0
BBX 10 14 1 0
BITMAP
0880
0500
0200
0000
0f40
1080
2080
2000
1800
0600
0100
4100
4200
bc00
ENDCHAR
STARTCHAR Scedilla
ENCODING 170
SWIDTH 600 0
DWIDTH 10 0
BBX 10 13 1 -3
BITMAP
0f40
1080
2080
2000
1800
0600
0100
4100
4200
bc00
0800
0400
1c00
ENDCHAR
STARTCHAR Tcaron
ENCODING 171
SWIDTH 600 0
DWIDTH 10 0
BBX 10 14 2 0
BITMAP
0880
0500
0200
0000
3fc0
2440
4880
4880
0800
1000
1000
2000
2000
f800
ENDCHAR
STARTCHAR Zacute
ENCODING 172
SWIDTH 600 0
DWIDTH 10 0
BBX 10 14 1 0
BITMAP
0080
0100
0200
0000
1fc0
1080
1100
0200
0400
0800
1000
2200
4200
fe00
ENDCHAR
STARTCHAR hyphen
ENCODING 173
SWIDTH 600 0
DWIDTH 10 0
BBX 7 1 2 4
BITMAP
fe
ENDCHAR
STARTCHAR Zcaron
ENCODING 174
SWIDTH 600 0
DWIDTH 10 0
BBX 10 14 1 0
BITMAP
0880
0500
0200
0000
1fc0
1080
1100
0200
0400
0800
1000
2200
4200
fe00
ENDCHAR
STARTCHAR Zabovedot
ENCODING 175
SWIDTH 600 0
DWIDTH 10 0
BBX 10 13 1 0
BITMAP
0200
0200
0000
1fc0
1080
1100
0200
0400
0800
1000
2200
4200
fe00
ENDCHAR
STARTCHAR degree
ENCODING 176
SWIDTH 600 0
DWIDTH 10 0
BBX 5 5 5 6
BITMAP
30
48
88
90
60
ENDCHAR
STARTCHAR aogonek
ENCODING 177
SWIDTH 600 0
DWIDTH 10 0
BBX 7 10 2 -3
BITMAP
1c
22
02
7c
84
88
74
10
20
18
ENDCHAR
STARTCHAR ogonek
ENCODING 178
SWIDTH 600 0
DWIDTH 10 0
BBX 3 3 3 -3
BITMAP
40
80
60
ENDCHAR
STARTCHAR lstroke
ENCODING 179
SWIDTH 600 0
DWIDTH 10 0
BBX 8 10 1 0
BITMAP
0e
02
04
05
1e
28
08
10
10
fe
ENDCHAR
STARTCHAR acute
ENCODING 180
SWIDTH 600 0
DWIDTH 10 0
BBX 3 3 7 8
BITMAP
20
40
80
ENDCHAR
STARTCHAR lcaron
ENCODING 181
SWIDTH 840 0
DWIDTH 14 0
BBX 11 11 1 0
BITMAP
0060
0e60
0240
0480
0400
0400
0800
0800
1000
1000
fe00
ENDCHAR
STARTCHAR sacute
ENCODING 182
SWIDTH 600 0
DWIDTH 10 0
BBX 8 11 2 0
BITMAP
02
04
08
00
1f
21
40
3c
02
84
f8
ENDCHAR
STARTCHAR caron
ENCODING 183
SWIDTH 600 0
DWIDTH 10 0
BBX 5 3 5 8
BITMAP
88
50
20
ENDCHAR
STARTCHAR cedilla
ENCODING 184
SWIDTH 600 0
DWIDTH 10 0
BBX 3 3 2 -3
BITMAP
40
20
e0
ENDCHAR
STARTCHAR scaron
ENCODING 185
SWIDTH 600 0
DWIDTH 10 0
BBX 8 11 2 0
BITMAP
22
14
08
00
1f
21
40
3c
02
84
f8
ENDCHAR
STARTCHAR scedilla
ENCODING 186
SWIDTH 600 0
DWIDTH 10 0
BBX 8 10 2 -3
BITMAP
1f
21
40
3c
02
84
f8
10
08
38
ENDCHAR
STARTCHAR tcaron
ENCODING 187
SWIDTH 660 0
DWIDTH 11 0
BBX 8 12 3 0
BITMAP
03
03
02
14
10
fe
20
40
40
80
84
78
ENDCHAR
STARTCHAR zacute
ENCODING 188
SWIDTH 600 0
DWIDTH 10 0
BBX 8 11 2 0
BITMAP
02
04
08
00
3f
22
04
18
20
44
fc
ENDCHAR
STARTCHAR doubleacute
ENCODING 189
SWIDTH 600 0
DWIDTH 10 0
BBX 6 3 5 8
BITMAP
24
48
90
ENDCHAR
STARTCHAR zcaron
ENCODING 190
SWIDTH 600 0
DWIDTH 10 0
BBX 8 11 2 0
BITMAP
22
14
08
00
3f
22
04
18
20
44
fc
ENDCHAR
STARTCHAR zabovedot
ENCODING 191
SWIDTH 600 0
DWIDTH 10 0
BBX 8 10 2 0
BITMAP
08
08
00
3f
22
04
18
20
44
fc
ENDCHAR
STARTCHAR Racute
ENCODING 192
SWIDTH 600 0
DWIDTH 10 0
BBX 9 14 1 0
BITMAP
0080
0100
0200
0000
1f00
0880
0880
1080
1100
3e00
2200
4100
4100
f180
ENDCHAR
STARTCHAR Aacute
ENCODING 193
SWIDTH 600 0
DWIDTH 10 0
BBX 9 14 1 0
BITMAP
0080
0100
0200
0000
0f00
0300
0500
0500
0900
1100
1f00
2100
4100
e380
ENDCHAR
STARTCHAR Acircumflex
ENCODING 194
SWIDTH 600 0
DWIDTH 10 0
BBX 9 14 1 0
BITMAP
0200
0500
0880
0000
0f00
0300
0500
0500
0900
1100
1f00
2100
4100
e380
ENDCHAR
STARTCHAR Abreve
ENCODING 195
SWIDTH 600 0
DWIDTH 10 0
BBX 9 14 1 0
BITMAP
0880
0880
0700
0000
0f00
0300
0500
0500
0900
1100
1f00
2100
4100
e380
ENDCHAR
STARTCHAR Adiaeresis
ENCODING 196
SWIDTH 600 0
DWIDTH 10 0
BBX 9 13 1 0
BITMAP
0480
0480
0000
0f00
0300
0500
0500
0900
1100
1f00
2100
4100
e380
ENDCHAR
STARTCHAR Lacute
ENCODING 197
SWIDTH 600 0
DWIDTH 10 0
BBX 9 14 1 0
BITMAP
0100
0200
0400
0000
1f00
0400
0400
0800
0800
1000
1080
2080
2100
ff00
ENDCHAR
STARTCHAR Cacute
ENCODING 198
SWIDTH 600 0
DWIDTH 10 0
BBX 10 14 2 0
BITMAP
0080
0100
0200
0000
0740
1880
2080
4000
4000
8000
8000
8100
4600
3800
ENDCHAR
STARTCHAR Ccedilla
ENCODING 199
SWIDTH 600 0
DWIDTH 10 0
BBX 10 13 2 -3
BITMAP
0740
1880
2080
4000
4000
8000
8000
8100
4600
3800
4000
2000
e000
ENDCHAR
STARTCHAR Ccaron
ENCODING 200
SWIDTH 600 0
DWIDTH 10 0
BBX 10 14 2 0
BITMAP
0880
0500
0200
0000
0740
1880
2080
4000
4000
8000
8000
8100
4600
3800
ENDCHAR
STARTCHAR Eacute
ENCODING 201
SWIDTH 600 0
DWIDTH 10 0
BBX 10 14 1 0
BITMAP
0080
0100
0200
0000
1fc0
0840
0840
1200
1c00
2400
2000
4100
4200
fe00
ENDCHAR
STARTCHAR Eogonek
ENCODING 202
SWIDTH 600 0
DWIDTH 10 0
BBX 10 13 1 -3
BITMAP
1fc0
0840
0840
1200
1c00
2400
2000
4100
4200
fe00
0800
1000
0c00
ENDCHAR
STARTCHAR Ediaeresis
ENCODING 203
SWIDTH 600 0
DWIDTH 10 0
BBX 10 13 1 0
BITMAP
0480
0480
0000
1fc0
0840
0840
1200
1c00
2400
2000
4100
4200
fe00
ENDCHAR
STARTCHAR Ecaron
ENCODING 204
SWIDTH 600 0
DWIDTH 10 0
BBX 10 14 1 0
BITMAP
0880
0500
0200
0000
1fc0
0840
0840
1200
1c00
2400
2000
4100
4200
fe00
ENDCHAR
STARTCHAR Iacute
ENCODING 205
SWIDTH 600 0
DWIDTH 10 0
BBX 10 14 1 0
BITMAP
0080
0100
0200
0000
1fc0
0200
0200
0400
0400
0800
0800
1000
1000
fe00
ENDCHAR
STARTCHAR Icircumflex
ENCODING 206
SWIDTH 600 0
DWIDTH 10 0
BBX 10 14 1 0
BITMAP
0200
0500
0880
0000
1fc0
0200
0200
0400
0400
0800
0800
1000
1000
fe00
ENDCHAR
STARTCHAR Dcaron
ENCODING 207
SWIDTH 600 0
DWIDTH 10 0
BBX 10 14 1 0
BITMAP
0880
0500
0200
0000
1f00
0880
0840
1040
1040
2080
2080
4100
4600
f800
ENDCHAR
STARTCHAR Dstroke
ENCODING 208
SWIDTH 600 0
DWIDTH 10 0
BBX 10 10 1 0
BITMAP
1f00
0880
0840
1040
7c40
2080
2080
4100
4600
f800
ENDCHAR
STARTCHAR Nacute
ENCODING 209
SWIDTH 600 0
DWIDTH 10 0
BBX 12 14 0 0
BITMAP
0040
0080
0100
0000
18f0
0820
1420
1440
1440
2280
2280
4280
4300
f100
ENDCHAR
STARTCHAR Ncaron
ENCODING 210
SWIDTH 600 0
DWIDTH 10 0
BBX 12 14 0 0
BITMAP
0440
0280
0100
0000
18f0
0820
1420
1440
1440
2280
2280
4280
4300
f100
ENDCHAR
STARTCHAR Oacute
ENCODING 211
SWIDTH 600 0
DWIDTH 10 0
BBX 9 14 2 0
BITMAP
0080
0100
0200
0000
0f00
1080
2080
4080
4080
8100
8100
8200
8400
7800
ENDCHAR
STARTCHAR Ocircumflex
ENCODING 212
SWIDTH 600 0
DWIDTH 10 0
BBX 9 14 2 0
BITMAP
0200
0500
0880
0000
0f00
1080
2080
4080
4080
8100
8100
8200
8400
7800
ENDCHAR
STARTCHAR Odoubleacute
ENCODING 213
SWIDTH 600 0
DWIDTH 10 0
BBX 11 14 2 0
BITMAP
0120
0240
0480
0000
0f00
1080
2080
4080
4080
8100
8100
8200
8400
7800
ENDCHAR
STARTCHAR Odiaeresis
ENCODING 214
SWIDTH 600 0
DWIDTH 10 0
BBX 9 13 2 0
BITMAP
0900
0900
0000
0f00
1080
2080
4080
4080
8100
8100
8200
8400
7800
ENDCHAR
STARTCHAR multiply
ENCODING 215
SWIDTH 600 0
DWIDTH 10 0
BBX 9 7 1 1
BITMAP
2080
1100
1600
0800
3400
4400
8200
ENDCHAR
STARTCHAR Rcaron
ENCODING 216
SWIDTH 600 0
DWIDTH 10 0
BBX 9 14 1 0
BITMAP
0880
0500
0200
0000
1f00
0880
0880
1080
1100
3e00
2200
4100
4100
f180
ENDCHAR
STARTCHAR Uring
ENCODING 217
SWIDTH 600 0
DWIDTH 10 0
BBX 11 14 2 0
BITMAP
0300
0480
0300
0000
79e0
2080
2080
4100
4100
8200
8200
8400
8800
7000
ENDCHAR
STARTCHAR Uacute
ENCODING 218
SWIDTH 600 0
DWIDTH 10 0
BBX 11 14 2 0
BITMAP
0080
0100
0200
0000
79e0
2080
2080
4100
4100
8200
8200
8400
8800
7000
ENDCHAR
STARTCHAR Udoubleacute
ENCODING 219
SWIDTH 600 0
DWIDTH 10 0
BBX 11 14 2 0
BITMAP
0120
0240
0480
0000
79e0
2080
2080
4100
4100
8200
8200
8400
8800
7000
ENDCHAR
STARTCHAR Udiaeresis
ENCODING 220
SWIDTH 600 0
DWIDTH 10 0
BBX 11 13 2 0
BITMAP
0480
0480
0000
79e0
2080
2080
4100
4100
8200
8200
8400
8800
7000
ENDCHAR
STARTCHAR Yacute
ENCODING 221
SWIDTH 600 0
DWIDTH 10 0
BBX 10 14 2 0
BITMAP
0100
0200
0400
0000
71c0
2080
2100
1200
1400
0800
1000
1000
2000
f800
ENDCHAR
STARTCHAR Tcedilla
ENCODING 222
SWIDTH 600 0
DWIDTH 10 0
BBX 10 13 2 -3
BITMAP
3fc0
2440
4880
4880
0800
1000
1000
2000
2000
f800
0800
0400
1c00
ENDCHAR
STARTCHAR ssharp
ENCODING 223
SWIDTH 600 0
DWIDTH 10 0
BBX 9 11 1 0
BITMAP
0700
0880
0880
1100
1600
1200
2100
2100
4100
5200
cc00
ENDCHAR
STARTCHAR racute
ENCODING 224
SWIDTH 600 0
DWIDTH 10 0
BBX 10 11 1 0
BITMAP
0100
0200
0400
0000
3b80
0c40
1000
1000
1000
2000
fc00
ENDCHAR
STARTCHAR aacute
ENCODING 225
SWIDTH 600 0
DWIDTH 10 0
BBX 8 11 1 0
BITMAP
01
02
04
00
0e
11
01
3e
42
84
7a
ENDCHAR
STARTCHAR acircumflex
ENCODING 226
SWIDTH 600 0
DWIDTH 10 0
BBX 8 11 1 0
BITMAP
04
0a
11
00
0e
11
01
3e
42
84
7a
ENDCHAR
STARTCHAR abreve
ENCODING 227
SWIDTH 600 0
DWIDTH 10 0
BBX 7 11 2 0
BITMAP
22
22
1c
00
1c
22
02
7c
84
88
74
ENDCHAR
STARTCHAR adiaeresis
ENCODING 228
SWIDTH 600 0
DWIDTH 10 0
BBX 8 10 1 0
BITMAP
09
09
00
0e
11
01
3e
42
84
7a
ENDCHAR
STARTCHAR lacute
ENCODING 229
SWIDTH 600 0
DWIDTH 10 0
BBX 8 14 1 0
BITMAP
01
02
04
00
0e
02
04
04
04
08
08
10
10
fe
ENDCHAR
STARTCHAR cacute
ENCODING 230
SWIDTH 600 0
DWIDTH 10 0
BBX 8 11 2 0
BITMAP
02
04
08
00
1d
62
42
80
80
84
78
ENDCHAR
STARTCHAR ccedilla
ENCODING 231
SWIDTH 600 0
DWIDTH 10 0
BBX 8 10 2 -3
BITMAP
1d
63
42
80
80
84
78
40
20
e0
ENDCHAR
STARTCHAR ccaron
ENCODING 232
SWIDTH 600 0
DWIDTH 10 0
BBX 8 11 2 0
BITMAP
22
14
08
00
1d
62
42
80
80
84
78
ENDCHAR
STARTCHAR eacute
ENCODING 233
SWIDTH 600 0
DWIDTH 10 0
BBX 7 11 2 0
BITMAP
02
04
08
00
1c
62
42
fe
80
84
78
ENDCHAR
STARTCHAR eogonek
ENCODING 234
SWIDTH 600 0
DWIDTH 10 0
BBX 7 10 2 -3
BITMAP
1c
62
42
fe
80
84
78
10
20
18
ENDCHAR
STARTCHAR ediaeresis
ENCODING 235
SWIDTH 600 0
DWIDTH 10 0
BBX 7 10 2 0
BITMAP
12
12
00
1c
62
42
fe
80
84
78
ENDCHAR
STARTCHAR ecaron
ENCODING 236
SWIDTH 600 0
DWIDTH 10 0
BBX 7 11 2 0
BITMAP
44
28
10
00
1c
62
42
fe
80
84
78
ENDCHAR
STARTCHAR iacute
ENCODING 237
SWIDTH 600 0
DWIDTH 10 0
BBX 8 11 1 0
BITMAP
01
02
04
00
1c
04
08
08
10
10
fe
ENDCHAR
STARTCHAR icircumflex
ENCODING 238
SWIDTH 600 0
DWIDTH 10 0
BBX 8 11 1 0
BITMAP
04
0a
11
00
1c
04
08
08
10
10
fe
ENDCHAR
STARTCHAR dcaron
ENCODING 239
SWIDTH 840 0
DWIDTH 14 0
BBX 13 11 2 0
BITMAP
0018
0198
0090
0120
1d00
6200
4200
8200
8400
8c00
7600
ENDCHAR
STARTCHAR dstroke
ENCODING 240
SWIDTH 780 0
DWIDTH 13 0
BBX 12 10 2 0
BITMAP
0080
0ff0
0100
1d00
6200
4200
8200
8400
8c00
7600
ENDCHAR
STARTCHAR nacute
ENCODING 241
SWIDTH 600 0
DWIDTH 10 0
BBX 9 11 1 0
BITMAP
0100
0200
0400
0000
3700
1880
1080
2100
2100
4200
e700
ENDCHAR
STARTCHAR ncaron
ENCODING 242
SWIDTH 600 0
DWIDTH 10 0
BBX 9 11 1 0
BITMAP
1100
0a00
0400
0000
3700
1880
1080
2100
2100
4200
e700
ENDCHAR
STARTCHAR oacute
ENCODING 243
SWIDTH 600 0
DWIDTH 10 0
BBX 7 11 2 0
BITMAP
02
04
08
00
1c
62
42
82
84
8c
70
ENDCHAR
STARTCHAR ocircumflex
ENCODING 244
SWIDTH 600 0
DWIDTH 10 0
BBX 7 11 2 0
BITMAP
08
14
22
00
1c
62
42
82
84
8c
70
ENDCHAR
STARTCHAR odoubleacute
ENCODING 245
SWIDTH 600 0
DWIDTH 10 0
BBX 8 11 2 0
BITMAP
09
12
24
00
1c
62
42
82
84
8c
70
ENDCHAR
STARTCHAR odiaeresis
ENCODING 246
SWIDTH 600 0
DWIDTH 10 0
BBX 7 10 2 0
BITMAP
12
12
00
1c
62
42
82
84
8c
70
ENDCHAR
STARTCHAR division
ENCODING 247
SWIDTH 600 0
DWIDTH 10 0
BBX 8 7 2 1
BITMAP
0c
0c
00
ff
00
30
30
ENDCHAR
STARTCHAR rcaron
ENCODING 248
SWIDTH 600 0
DWIDTH 10 0
BBX 10 11 1 0
BITMAP
1100
0a00
0400
0000
3b80
0c40
1000
1000
1000
2000
fc00
ENDCHAR
STARTCHAR uring
ENCODING 249
SWIDTH 600 0
DWIDTH 10 0
BBX 8 11 2 0
BITMAP
0c
12
0c
00
73
21
42
42
84
8c
76
ENDCHAR
STARTCHAR uacute
ENCODING 250
SWIDTH 600 0
DWIDTH 10 0
BBX 8 11 2 0
BITMAP
02
04
08
00
63
21
42
42
84
8c
76
ENDCHAR
STARTCHAR udoubleacute
ENCODING 251
SWIDTH 600 0
DWIDTH 10 0
BBX 9 11 2 0
BITMAP
0480
0900
1200
0000
7300
2100
4200
4200
8400
8c00
7600
ENDCHAR
STARTCHAR udiaeresis
ENCODING 252
SWIDTH 600 0
DWIDTH 10 0
BBX 8 10 2 0
BITMAP
12
12
00
63
21
42
42
84
8c
76
ENDCHAR
STARTCHAR yacute
ENCODING 253
SWIDTH 600 0
DWIDTH 10 0
BBX 11 14 0 -3
BITMAP
0040
0080
0100
0000
38e0
1040
1080
0900
0a00
0400
0800
1000
2000
f000
ENDCHAR
STARTCHAR tcedilla
ENCODING 254
SWIDTH 600 0
DWIDTH 10 0
BBX 7 12 3 -3
BITMAP
10
10
fe
20
40
40
80
84
78
10
08
38
ENDCHAR
STARTCHAR abovedot
ENCODING 255
SWIDTH 600 0
DWIDTH 10 0
BBX 1 2 7 8
BITMAP
80
80
ENDCHAR
ENDFONT
